<?xml version="1.0" encoding="iso-8859-1"?>
<!-- Uploaded to: SVG Repo, www.svgrepo.com, Generator: SVG Repo Mixer Tools -->
<svg version="1.1" id="Layer_1" xmlns="http://www.w3.org/2000/svg" xmlns:xlink="http://www.w3.org/1999/xlink" 
	 viewBox="0 0 512 512" xml:space="preserve">
<g>
	<path style="fill:#707070;" d="M437.019,74.981C388.667,26.629,324.38,0,256,0l-10.442,15.837L256,31.326
		c60.013,0,116.433,23.37,158.869,65.806c42.435,42.436,65.806,98.856,65.806,158.869s-23.37,116.433-65.806,158.869
		c-42.436,42.437-98.856,65.806-158.869,65.806l-10.442,17.229L256,512c68.38,0,132.667-26.629,181.019-74.981
		C485.371,388.666,512,324.38,512,256S485.371,123.333,437.019,74.981z"/>
	<path style="fill:#707070;" d="M393.149,256c0,14.618-2.284,28.998-6.787,42.744l29.769,9.755
		c5.537-16.899,8.345-34.563,8.345-52.498c0-92.897-75.577-168.474-168.474-168.474l-10.442,17.388l10.442,13.938
		C331.624,118.851,393.149,180.376,393.149,256z"/>
	<path style="fill:#707070;" d="M298.744,386.36c-13.747,4.504-28.128,6.788-42.744,6.788l-10.442,16.91L256,424.474
		c17.934,0,35.597-2.807,52.497-8.344L298.744,386.36z"/>
</g>
<g>
	<path style="fill:#B4B4B4;" d="M135.685,29.981l14.742,27.641C182.681,40.418,219.187,31.326,256,31.326V0
		C214.064,0,172.46,10.368,135.685,29.981z"/>
	<path style="fill:#B4B4B4;" d="M97.131,414.869C54.697,372.433,31.326,316.013,31.326,256c0-36.816,9.093-73.324,26.298-105.577
		l-27.64-14.743C10.369,172.454,0,214.06,0,256c0,68.38,26.628,132.667,74.981,181.019C123.333,485.371,187.62,512,256,512v-31.326
		C195.987,480.674,139.567,457.305,97.131,414.869z"/>
	<path style="fill:#B4B4B4;" d="M118.851,256c0-75.624,61.524-137.149,137.149-137.149V87.526
		c-92.897,0-168.474,75.577-168.474,168.474S163.103,424.474,256,424.474v-31.326C180.376,393.149,118.851,331.624,118.851,256z"/>
</g>
<g>
	<polygon style="fill:#FF8E00;" points="271.663,167.957 256,167.957 245.558,187.556 256,207.154 271.663,207.154 	"/>
	<polygon style="fill:#FF8E00;" points="271.663,304.846 256,304.846 245.558,324.444 256,344.043 271.663,344.043 	"/>
</g>
<rect x="188.006" y="191.943" transform="matrix(-0.7071 -0.7071 0.7071 -0.7071 207.6035 501.2035)" style="fill:#FFBA00;" width="39.196" height="31.325"/>
<rect x="284.802" y="288.735" transform="matrix(-0.7071 -0.7071 0.7071 -0.7071 304.4022 734.8833)" style="fill:#FF8E00;" width="39.196" height="31.325"/>
<rect x="167.957" y="240.34" style="fill:#FFBA00;" width="39.197" height="31.326"/>
<rect x="304.85" y="240.34" style="fill:#FF8E00;" width="39.198" height="31.326"/>
<rect x="191.935" y="284.802" transform="matrix(-0.7071 -0.7071 0.7071 -0.7071 139.1476 666.4365)" style="fill:#FFBA00;" width="31.325" height="39.196"/>
<rect x="288.727" y="188.006" transform="matrix(-0.7071 -0.7071 0.7071 -0.7071 372.8275 569.6377)" style="fill:#FF8E00;" width="31.325" height="39.196"/>
<g>
	<rect x="240.34" y="167.957" style="fill:#FFBA00;" width="15.663" height="39.197"/>
	<rect x="240.34" y="304.85" style="fill:#FFBA00;" width="15.663" height="39.197"/>
	<path style="fill:#FFBA00;" d="M256,196.333L235.116,256L256,315.667c32.953,0,59.667-26.713,59.667-59.667
		S288.953,196.333,256,196.333z"/>
</g>
<path style="fill:#FDE09C;" d="M196.333,256c0,32.953,26.713,59.667,59.667,59.667V196.333
	C223.047,196.333,196.333,223.047,196.333,256z"/>
<path style="fill:#FF0F4D;" d="M86.057,40.052L65.173,86.056l20.884,46.004c25.366,0,46.005-20.637,46.005-46.004
	S111.423,40.052,86.057,40.052z"/>
<path style="fill:#FF6E7A;" d="M40.052,86.057c0,25.366,20.637,46.004,46.005,46.004V40.052
	C60.689,40.052,40.052,60.69,40.052,86.057z"/>
<path style="fill:#003DA8;" d="M364.053,318.05l-20.884,46.004l20.884,46.004c25.366,0,46.005-20.637,46.005-46.004
	C410.058,338.687,389.421,318.05,364.053,318.05z"/>
<path style="fill:#2F91ED;" d="M318.05,364.054c0,25.366,20.637,46.004,46.005,46.004v-92.007
	C338.687,318.05,318.05,338.688,318.05,364.054z"/>
</svg>